<mxfile host="Electron" agent="Mozilla/5.0 (Windows NT 10.0; Win64; x64) AppleWebKit/537.36 (KHTML, like Gecko) draw.io/25.0.2 Chrome/128.0.6613.186 Electron/32.2.5 Safari/537.36" version="25.0.2" pages="2">
  <diagram name="Page-1" id="JtXkiYvtuSMZ9zqoo6Es">
    <mxGraphModel dx="-1274" dy="-494" grid="1" gridSize="10" guides="1" tooltips="1" connect="1" arrows="1" fold="1" page="1" pageScale="1" pageWidth="850" pageHeight="1100" math="0" shadow="0">
      <root>
        <mxCell id="0" />
        <mxCell id="1" parent="0" />
        <mxCell id="XCD32te2mecrrckBGT-J-12" value="" style="edgeStyle=orthogonalEdgeStyle;rounded=0;orthogonalLoop=1;jettySize=auto;html=1;" parent="1" source="XCD32te2mecrrckBGT-J-13" target="XCD32te2mecrrckBGT-J-14" edge="1">
          <mxGeometry relative="1" as="geometry" />
        </mxCell>
        <mxCell id="XCD32te2mecrrckBGT-J-13" value="Display Pharmacy&lt;div&gt;Homepage&lt;/div&gt;" style="shape=parallelogram;perimeter=parallelogramPerimeter;whiteSpace=wrap;html=1;fixedSize=1;" parent="1" vertex="1">
          <mxGeometry x="2892.5" y="1670" width="145" height="60" as="geometry" />
        </mxCell>
        <mxCell id="XCD32te2mecrrckBGT-J-14" value="Option&lt;div&gt;Selection&lt;/div&gt;" style="rhombus;whiteSpace=wrap;html=1;" parent="1" vertex="1">
          <mxGeometry x="2905" y="1780" width="120" height="100" as="geometry" />
        </mxCell>
        <mxCell id="XCD32te2mecrrckBGT-J-15" value="" style="endArrow=none;html=1;rounded=0;" parent="1" edge="1">
          <mxGeometry width="50" height="50" relative="1" as="geometry">
            <mxPoint x="2894" y="1930" as="sourcePoint" />
            <mxPoint x="2974" y="1930" as="targetPoint" />
          </mxGeometry>
        </mxCell>
        <mxCell id="XCD32te2mecrrckBGT-J-16" value="" style="endArrow=none;html=1;rounded=0;" parent="1" edge="1">
          <mxGeometry width="50" height="50" relative="1" as="geometry">
            <mxPoint x="2720" y="1930" as="sourcePoint" />
            <mxPoint x="3210" y="1930" as="targetPoint" />
          </mxGeometry>
        </mxCell>
        <mxCell id="h-c7TnxqgQN_qPKGfwWC-16" value="" style="edgeStyle=orthogonalEdgeStyle;rounded=0;orthogonalLoop=1;jettySize=auto;html=1;" parent="1" source="XCD32te2mecrrckBGT-J-17" target="h-c7TnxqgQN_qPKGfwWC-15" edge="1">
          <mxGeometry relative="1" as="geometry" />
        </mxCell>
        <mxCell id="XCD32te2mecrrckBGT-J-17" value="&lt;div&gt;Dispense&lt;div&gt;Medicines for&lt;/div&gt;&lt;div&gt;prescriptions&amp;nbsp;&lt;/div&gt;&lt;/div&gt;" style="shape=parallelogram;html=1;strokeWidth=2;perimeter=parallelogramPerimeter;whiteSpace=wrap;rounded=1;arcSize=12;size=0.23;" parent="1" vertex="1">
          <mxGeometry x="2970" y="2000" width="150" height="75" as="geometry" />
        </mxCell>
        <mxCell id="XCD32te2mecrrckBGT-J-20" value="" style="endArrow=classic;html=1;rounded=0;entryX=0.5;entryY=0;entryDx=0;entryDy=0;" parent="1" edge="1">
          <mxGeometry relative="1" as="geometry">
            <mxPoint x="2720" y="1930" as="sourcePoint" />
            <mxPoint x="2720.0000000000005" y="2000" as="targetPoint" />
          </mxGeometry>
        </mxCell>
        <mxCell id="XCD32te2mecrrckBGT-J-21" value="View/Edit&amp;nbsp;&lt;span style=&quot;background-color: light-dark(#ffffff, var(--ge-dark-color, #121212)); color: light-dark(rgb(0, 0, 0), rgb(255, 255, 255));&quot;&gt;Medicines Data&lt;/span&gt;" style="edgeLabel;resizable=0;html=1;align=center;verticalAlign=middle;" parent="XCD32te2mecrrckBGT-J-20" connectable="0" vertex="1">
          <mxGeometry relative="1" as="geometry" />
        </mxCell>
        <mxCell id="XCD32te2mecrrckBGT-J-22" style="edgeStyle=orthogonalEdgeStyle;rounded=0;orthogonalLoop=1;jettySize=auto;html=1;" parent="1" edge="1">
          <mxGeometry relative="1" as="geometry">
            <mxPoint x="2964.5" y="1930" as="targetPoint" />
            <mxPoint x="2964.5" y="1880" as="sourcePoint" />
          </mxGeometry>
        </mxCell>
        <mxCell id="h-c7TnxqgQN_qPKGfwWC-12" value="" style="edgeStyle=orthogonalEdgeStyle;rounded=0;orthogonalLoop=1;jettySize=auto;html=1;" parent="1" source="XCD32te2mecrrckBGT-J-23" target="h-c7TnxqgQN_qPKGfwWC-11" edge="1">
          <mxGeometry relative="1" as="geometry" />
        </mxCell>
        <mxCell id="XCD32te2mecrrckBGT-J-23" value="View, add, and&amp;nbsp;&lt;div&gt;medicines data&lt;/div&gt;" style="shape=parallelogram;html=1;strokeWidth=2;perimeter=parallelogramPerimeter;whiteSpace=wrap;rounded=1;arcSize=12;size=0.23;" parent="1" vertex="1">
          <mxGeometry x="2650" y="2000" width="140" height="80" as="geometry" />
        </mxCell>
        <mxCell id="h-c7TnxqgQN_qPKGfwWC-1" value="" style="endArrow=classic;html=1;rounded=0;entryX=0.5;entryY=0;entryDx=0;entryDy=0;" parent="1" edge="1">
          <mxGeometry relative="1" as="geometry">
            <mxPoint x="2870" y="1930" as="sourcePoint" />
            <mxPoint x="2870.0000000000005" y="2000" as="targetPoint" />
          </mxGeometry>
        </mxCell>
        <mxCell id="h-c7TnxqgQN_qPKGfwWC-2" value="Edit Lab Tests Data" style="edgeLabel;resizable=0;html=1;align=center;verticalAlign=middle;" parent="h-c7TnxqgQN_qPKGfwWC-1" connectable="0" vertex="1">
          <mxGeometry relative="1" as="geometry" />
        </mxCell>
        <mxCell id="h-c7TnxqgQN_qPKGfwWC-14" value="" style="edgeStyle=orthogonalEdgeStyle;rounded=0;orthogonalLoop=1;jettySize=auto;html=1;" parent="1" source="h-c7TnxqgQN_qPKGfwWC-3" target="h-c7TnxqgQN_qPKGfwWC-13" edge="1">
          <mxGeometry relative="1" as="geometry" />
        </mxCell>
        <mxCell id="h-c7TnxqgQN_qPKGfwWC-3" value="View, add, and&amp;nbsp;&lt;div&gt;medicines data&lt;/div&gt;" style="shape=parallelogram;html=1;strokeWidth=2;perimeter=parallelogramPerimeter;whiteSpace=wrap;rounded=1;arcSize=12;size=0.23;" parent="1" vertex="1">
          <mxGeometry x="2800" y="2000" width="140" height="80" as="geometry" />
        </mxCell>
        <mxCell id="h-c7TnxqgQN_qPKGfwWC-4" value="" style="endArrow=classic;html=1;rounded=0;" parent="1" edge="1">
          <mxGeometry width="50" height="50" relative="1" as="geometry">
            <mxPoint x="3060" y="1930" as="sourcePoint" />
            <mxPoint x="3060" y="2000" as="targetPoint" />
          </mxGeometry>
        </mxCell>
        <mxCell id="h-c7TnxqgQN_qPKGfwWC-6" value="Dispense Medicines" style="edgeLabel;html=1;align=center;verticalAlign=middle;resizable=0;points=[];" parent="h-c7TnxqgQN_qPKGfwWC-4" vertex="1" connectable="0">
          <mxGeometry x="0.1257" y="-3" relative="1" as="geometry">
            <mxPoint as="offset" />
          </mxGeometry>
        </mxCell>
        <mxCell id="h-c7TnxqgQN_qPKGfwWC-5" value="" style="endArrow=classic;html=1;rounded=0;" parent="1" edge="1">
          <mxGeometry width="50" height="50" relative="1" as="geometry">
            <mxPoint x="3210" y="1930" as="sourcePoint" />
            <mxPoint x="3210" y="2000" as="targetPoint" />
          </mxGeometry>
        </mxCell>
        <mxCell id="h-c7TnxqgQN_qPKGfwWC-9" value="Update Lab Tests" style="edgeLabel;html=1;align=center;verticalAlign=middle;resizable=0;points=[];" parent="h-c7TnxqgQN_qPKGfwWC-5" vertex="1" connectable="0">
          <mxGeometry x="0.2286" y="-1" relative="1" as="geometry">
            <mxPoint as="offset" />
          </mxGeometry>
        </mxCell>
        <mxCell id="h-c7TnxqgQN_qPKGfwWC-18" value="" style="edgeStyle=orthogonalEdgeStyle;rounded=0;orthogonalLoop=1;jettySize=auto;html=1;" parent="1" source="h-c7TnxqgQN_qPKGfwWC-10" target="h-c7TnxqgQN_qPKGfwWC-17" edge="1">
          <mxGeometry relative="1" as="geometry" />
        </mxCell>
        <mxCell id="h-c7TnxqgQN_qPKGfwWC-10" value="&lt;div&gt;&amp;nbsp; &amp;nbsp;Update Lab Tests&lt;/div&gt;&lt;div&gt;for existing&lt;/div&gt;&lt;div&gt;patient&lt;/div&gt;" style="shape=parallelogram;html=1;strokeWidth=2;perimeter=parallelogramPerimeter;whiteSpace=wrap;rounded=1;arcSize=12;size=0.23;" parent="1" vertex="1">
          <mxGeometry x="3130" y="2000" width="150" height="75" as="geometry" />
        </mxCell>
        <mxCell id="h-c7TnxqgQN_qPKGfwWC-11" value="" style="shape=waypoint;sketch=0;size=6;pointerEvents=1;points=[];fillColor=default;resizable=0;rotatable=0;perimeter=centerPerimeter;snapToPoint=1;strokeWidth=2;rounded=1;arcSize=12;" parent="1" vertex="1">
          <mxGeometry x="2710" y="2130" width="20" height="20" as="geometry" />
        </mxCell>
        <mxCell id="h-c7TnxqgQN_qPKGfwWC-13" value="" style="shape=waypoint;sketch=0;size=6;pointerEvents=1;points=[];fillColor=default;resizable=0;rotatable=0;perimeter=centerPerimeter;snapToPoint=1;strokeWidth=2;rounded=1;arcSize=12;" parent="1" vertex="1">
          <mxGeometry x="2860" y="2130" width="20" height="20" as="geometry" />
        </mxCell>
        <mxCell id="h-c7TnxqgQN_qPKGfwWC-15" value="" style="shape=waypoint;sketch=0;size=6;pointerEvents=1;points=[];fillColor=default;resizable=0;rotatable=0;perimeter=centerPerimeter;snapToPoint=1;strokeWidth=2;rounded=1;arcSize=12;" parent="1" vertex="1">
          <mxGeometry x="3035" y="2130" width="20" height="20" as="geometry" />
        </mxCell>
        <mxCell id="h-c7TnxqgQN_qPKGfwWC-21" style="edgeStyle=orthogonalEdgeStyle;rounded=0;orthogonalLoop=1;jettySize=auto;html=1;" parent="1" source="h-c7TnxqgQN_qPKGfwWC-17" target="h-c7TnxqgQN_qPKGfwWC-22" edge="1">
          <mxGeometry relative="1" as="geometry">
            <mxPoint x="2618.117639878217" y="2140" as="targetPoint" />
          </mxGeometry>
        </mxCell>
        <mxCell id="h-c7TnxqgQN_qPKGfwWC-17" value="" style="shape=waypoint;sketch=0;size=6;pointerEvents=1;points=[];fillColor=default;resizable=0;rotatable=0;perimeter=centerPerimeter;snapToPoint=1;strokeWidth=2;rounded=1;arcSize=12;" parent="1" vertex="1">
          <mxGeometry x="3195" y="2130" width="20" height="20" as="geometry" />
        </mxCell>
        <mxCell id="h-c7TnxqgQN_qPKGfwWC-23" style="edgeStyle=orthogonalEdgeStyle;rounded=0;orthogonalLoop=1;jettySize=auto;html=1;" parent="1" source="h-c7TnxqgQN_qPKGfwWC-22" edge="1" target="8klo1n_1QtE6rW2Z2pqr-1">
          <mxGeometry relative="1" as="geometry">
            <mxPoint x="2618" y="1690" as="targetPoint" />
          </mxGeometry>
        </mxCell>
        <mxCell id="h-c7TnxqgQN_qPKGfwWC-22" value="" style="shape=waypoint;sketch=0;fillStyle=solid;size=6;pointerEvents=1;points=[];fillColor=none;resizable=0;rotatable=0;perimeter=centerPerimeter;snapToPoint=1;" parent="1" vertex="1">
          <mxGeometry x="2608.117639878217" y="2130" width="20" height="20" as="geometry" />
        </mxCell>
        <mxCell id="8klo1n_1QtE6rW2Z2pqr-2" style="edgeStyle=orthogonalEdgeStyle;rounded=0;orthogonalLoop=1;jettySize=auto;html=1;entryX=0;entryY=0.25;entryDx=0;entryDy=0;" edge="1" parent="1" source="8klo1n_1QtE6rW2Z2pqr-1" target="XCD32te2mecrrckBGT-J-13">
          <mxGeometry relative="1" as="geometry" />
        </mxCell>
        <mxCell id="8klo1n_1QtE6rW2Z2pqr-1" value="" style="shape=waypoint;sketch=0;fillStyle=solid;size=6;pointerEvents=1;points=[];fillColor=none;resizable=0;rotatable=0;perimeter=centerPerimeter;snapToPoint=1;" vertex="1" parent="1">
          <mxGeometry x="2608" y="1680" width="20" height="20" as="geometry" />
        </mxCell>
      </root>
    </mxGraphModel>
  </diagram>
  <diagram id="UmdI6eCdQV96YGVfX9vl" name="Refined">
    <mxGraphModel dx="1235" dy="827" grid="1" gridSize="10" guides="1" tooltips="1" connect="1" arrows="1" fold="1" page="1" pageScale="1" pageWidth="850" pageHeight="1100" math="0" shadow="0">
      <root>
        <mxCell id="0" />
        <mxCell id="1" parent="0" />
        <mxCell id="_YYxoL6cynbAHGDHd7XT-1" value="Load the pharmacy home page" style="rounded=1;whiteSpace=wrap;html=1;" vertex="1" parent="1">
          <mxGeometry x="420" y="180" width="120" height="60" as="geometry" />
        </mxCell>
        <mxCell id="_YYxoL6cynbAHGDHd7XT-2" value="&lt;div&gt;Get Medicines Data&lt;/div&gt;&lt;div&gt;Get Lab Tests Data&lt;/div&gt;&lt;div&gt;Get Medicines to Be Dispensed Data&lt;/div&gt;&lt;div&gt;Get Lab tests to be Updated Data&lt;span style=&quot;color: rgba(0, 0, 0, 0); font-family: monospace; font-size: 0px; text-align: start; text-wrap: nowrap; background-color: initial;&quot;&gt;%3CmxGraphModel%3E%3Croot%3E%3CmxCell%20id%3D%220%22%2F%3E%3CmxCell%20id%3D%221%22%20parent%3D%220%22%2F%3E%3CmxCell%20id%3D%222%22%20value%3D%22%22%20style%3D%22endArrow%3Dclassic%3Bhtml%3D1%3Brounded%3D0%3BexitX%3D0.645%3BexitY%3D0.989%3BexitDx%3D0%3BexitDy%3D0%3BexitPerimeter%3D0%3B%22%20edge%3D%221%22%20parent%3D%221%22%3E%3CmxGeometry%20width%3D%2250%22%20height%3D%2250%22%20relative%3D%221%22%20as%3D%22geometry%22%3E%3CmxPoint%20x%3D%22497%22%20y%3D%22239%22%20as%3D%22sourcePoint%22%2F%3E%3CmxPoint%20x%3D%22470%22%20y%3D%22490%22%20as%3D%22targetPoint%22%2F%3E%3C%2FmxGeometry%3E%3C%2FmxCell%3E%3CmxCell%20id%3D%223%22%20value%3D%22User%20clicks%20on%26lt%3Bdiv%26gt%3BView%20Medicine%26amp%3Bnbsp%3B%26lt%3B%2Fdiv%26gt%3B%26lt%3Bdiv%26gt%3BButton%26lt%3B%2Fdiv%26gt%3B%22%20style%3D%22edgeLabel%3Bhtml%3D1%3Balign%3Dcenter%3BverticalAlign%3Dmiddle%3Bresizable%3D0%3Bpoints%3D%5B%5D%3B%22%20vertex%3D%221%22%20connectable%3D%220%22%20parent%3D%222%22%3E%3CmxGeometry%20x%3D%22-0.3192%22%20y%3D%22-4%22%20relative%3D%221%22%20as%3D%22geometry%22%3E%3CmxPoint%20x%3D%224%22%20y%3D%226%22%20as%3D%22offset%22%2F%3E%3C%2FmxGeometry%3E%3C%2FmxCell%3E%3CmxCell%20id%3D%224%22%20value%3D%22%22%20style%3D%22endArrow%3Dclassic%3Bhtml%3D1%3Brounded%3D0%3BexitX%3D0.25%3BexitY%3D1%3BexitDx%3D0%3BexitDy%3D0%3BentryX%3D0.25%3BentryY%3D0%3BentryDx%3D0%3BentryDy%3D0%3B%22%20edge%3D%221%22%20target%3D%226%22%20parent%3D%221%22%3E%3CmxGeometry%20width%3D%2250%22%20height%3D%2250%22%20relative%3D%221%22%20as%3D%22geometry%22%3E%3CmxPoint%20x%3D%22530%22%20y%3D%22240%22%20as%3D%22sourcePoint%22%2F%3E%3CmxPoint%20x%3D%22600%22%20y%3D%22520%22%20as%3D%22targetPoint%22%2F%3E%3C%2FmxGeometry%3E%3C%2FmxCell%3E%3CmxCell%20id%3D%225%22%20value%3D%22User%20clicks%20on%26amp%3Bnbsp%3B%26lt%3Bdiv%26gt%3BView%20Lab%20Test%26amp%3Bnbsp%3B%26lt%3B%2Fdiv%26gt%3B%26lt%3Bdiv%26gt%3BButton%26lt%3B%2Fdiv%26gt%3B%22%20style%3D%22edgeLabel%3Bhtml%3D1%3Balign%3Dcenter%3BverticalAlign%3Dmiddle%3Bresizable%3D0%3Bpoints%3D%5B%5D%3B%22%20vertex%3D%221%22%20connectable%3D%220%22%20parent%3D%224%22%3E%3CmxGeometry%20x%3D%22-0.634%22%20y%3D%221%22%20relative%3D%221%22%20as%3D%22geometry%22%3E%3CmxPoint%20x%3D%22-4%22%20y%3D%22-18%22%20as%3D%22offset%22%2F%3E%3C%2FmxGeometry%3E%3C%2FmxCell%3E%3CmxCell%20id%3D%226%22%20value%3D%22Load%20the%20Lab%20Tests%20Page%22%20style%3D%22rounded%3D1%3BwhiteSpace%3Dwrap%3Bhtml%3D1%3B%22%20vertex%3D%221%22%20parent%3D%221%22%3E%3CmxGeometry%20x%3D%22624.57%22%20y%3D%22615%22%20width%3D%22120%22%20height%3D%2260%22%20as%3D%22geometry%22%2F%3E%3C%2FmxCell%3E%3CmxCell%20id%3D%227%22%20value%3D%22Get%20Medicines%20Data%22%20style%3D%22shape%3Dcylinder3%3BwhiteSpace%3Dwrap%3Bhtml%3D1%3BboundedLbl%3D1%3BbackgroundOutline%3D1%3Bsize%3D15%3B%22%20vertex%3D%221%22%20parent%3D%221%22%3E%3CmxGeometry%20x%3D%22500%22%20y%3D%22370%22%20width%3D%2270%22%20height%3D%2280%22%20as%3D%22geometry%22%2F%3E%3C%2FmxCell%3E%3CmxCell%20id%3D%228%22%20style%3D%22edgeStyle%3DorthogonalEdgeStyle%3Brounded%3D0%3BorthogonalLoop%3D1%3BjettySize%3Dauto%3Bhtml%3D1%3B%22%20edge%3D%221%22%20source%3D%229%22%20parent%3D%221%22%3E%3CmxGeometry%20relative%3D%221%22%20as%3D%22geometry%22%3E%3CmxPoint%20x%3D%22480%22%20y%3D%22780%22%20as%3D%22targetPoint%22%2F%3E%3C%2FmxGeometry%3E%3C%2FmxCell%3E%3CmxCell%20id%3D%229%22%20value%3D%22Load%20the%20View%20MedicinesPage%22%20style%3D%22rounded%3D1%3BwhiteSpace%3Dwrap%3Bhtml%3D1%3B%22%20vertex%3D%221%22%20parent%3D%221%22%3E%3CmxGeometry%20x%3D%22420%22%20y%3D%22490%22%20width%3D%22120%22%20height%3D%2260%22%20as%3D%22geometry%22%2F%3E%3C%2FmxCell%3E%3C%2Froot%3E%3C%2FmxGraphModel%3E&lt;/span&gt;&lt;/div&gt;" style="shape=cylinder3;whiteSpace=wrap;html=1;boundedLbl=1;backgroundOutline=1;size=15;" vertex="1" parent="1">
          <mxGeometry x="200" y="60" width="200" height="110" as="geometry" />
        </mxCell>
        <mxCell id="_YYxoL6cynbAHGDHd7XT-3" value="" style="endArrow=classic;html=1;rounded=0;entryX=0.451;entryY=1.045;entryDx=0;entryDy=0;entryPerimeter=0;" edge="1" parent="1" target="_YYxoL6cynbAHGDHd7XT-5">
          <mxGeometry width="50" height="50" relative="1" as="geometry">
            <mxPoint x="500" y="180" as="sourcePoint" />
            <mxPoint x="500" y="130" as="targetPoint" />
          </mxGeometry>
        </mxCell>
        <mxCell id="_YYxoL6cynbAHGDHd7XT-4" value="User click on&amp;nbsp;&lt;div&gt;Logout Button&lt;/div&gt;" style="edgeLabel;html=1;align=center;verticalAlign=middle;resizable=0;points=[];" vertex="1" connectable="0" parent="_YYxoL6cynbAHGDHd7XT-3">
          <mxGeometry x="0.0509" relative="1" as="geometry">
            <mxPoint as="offset" />
          </mxGeometry>
        </mxCell>
        <mxCell id="_YYxoL6cynbAHGDHd7XT-5" value="Logout" style="shape=parallelogram;perimeter=parallelogramPerimeter;whiteSpace=wrap;html=1;fixedSize=1;" vertex="1" parent="1">
          <mxGeometry x="450" y="90" width="110" height="50" as="geometry" />
        </mxCell>
        <mxCell id="_YYxoL6cynbAHGDHd7XT-6" value="Redirect user&amp;nbsp;&lt;span style=&quot;background-color: initial;&quot;&gt;to&amp;nbsp;&lt;/span&gt;&lt;div&gt;&lt;span style=&quot;background-color: initial;&quot;&gt;the application&amp;nbsp;&lt;/span&gt;&lt;div&gt;home page&lt;/div&gt;&lt;/div&gt;" style="shape=parallelogram;perimeter=parallelogramPerimeter;whiteSpace=wrap;html=1;fixedSize=1;" vertex="1" parent="1">
          <mxGeometry x="450" width="130" height="60" as="geometry" />
        </mxCell>
        <mxCell id="_YYxoL6cynbAHGDHd7XT-7" style="edgeStyle=orthogonalEdgeStyle;rounded=0;orthogonalLoop=1;jettySize=auto;html=1;entryX=0.423;entryY=1;entryDx=0;entryDy=0;entryPerimeter=0;" edge="1" parent="1" source="_YYxoL6cynbAHGDHd7XT-5" target="_YYxoL6cynbAHGDHd7XT-6">
          <mxGeometry relative="1" as="geometry" />
        </mxCell>
        <mxCell id="_YYxoL6cynbAHGDHd7XT-8" value="" style="endArrow=classic;html=1;rounded=0;exitX=1;exitY=0.5;exitDx=0;exitDy=0;exitPerimeter=0;entryX=0.333;entryY=0;entryDx=0;entryDy=0;entryPerimeter=0;" edge="1" parent="1">
          <mxGeometry width="50" height="50" relative="1" as="geometry">
            <mxPoint x="400" y="115" as="sourcePoint" />
            <mxPoint x="460" y="180" as="targetPoint" />
          </mxGeometry>
        </mxCell>
        <mxCell id="_YYxoL6cynbAHGDHd7XT-9" value="" style="endArrow=classic;html=1;rounded=0;exitX=0.645;exitY=0.989;exitDx=0;exitDy=0;exitPerimeter=0;" edge="1" parent="1">
          <mxGeometry width="50" height="50" relative="1" as="geometry">
            <mxPoint x="497" y="239" as="sourcePoint" />
            <mxPoint x="470" y="490" as="targetPoint" />
          </mxGeometry>
        </mxCell>
        <mxCell id="_YYxoL6cynbAHGDHd7XT-10" value="User clicks on&lt;div&gt;View Medicine&amp;nbsp;&lt;/div&gt;&lt;div&gt;Button&lt;/div&gt;" style="edgeLabel;html=1;align=center;verticalAlign=middle;resizable=0;points=[];" vertex="1" connectable="0" parent="_YYxoL6cynbAHGDHd7XT-9">
          <mxGeometry x="-0.3192" y="-4" relative="1" as="geometry">
            <mxPoint x="4" y="6" as="offset" />
          </mxGeometry>
        </mxCell>
        <mxCell id="_YYxoL6cynbAHGDHd7XT-11" value="" style="endArrow=classic;html=1;rounded=0;exitX=0.25;exitY=1;exitDx=0;exitDy=0;entryX=0.25;entryY=0;entryDx=0;entryDy=0;" edge="1" parent="1">
          <mxGeometry width="50" height="50" relative="1" as="geometry">
            <mxPoint x="530" y="240" as="sourcePoint" />
            <mxPoint x="654.5700000000002" y="615" as="targetPoint" />
          </mxGeometry>
        </mxCell>
        <mxCell id="_YYxoL6cynbAHGDHd7XT-12" value="User clicks on&amp;nbsp;&lt;div&gt;View Lab Test&amp;nbsp;&lt;/div&gt;&lt;div&gt;Button&lt;/div&gt;" style="edgeLabel;html=1;align=center;verticalAlign=middle;resizable=0;points=[];" vertex="1" connectable="0" parent="_YYxoL6cynbAHGDHd7XT-11">
          <mxGeometry x="-0.634" y="1" relative="1" as="geometry">
            <mxPoint x="-4" y="-18" as="offset" />
          </mxGeometry>
        </mxCell>
        <mxCell id="_YYxoL6cynbAHGDHd7XT-14" value="Get Medicines Data" style="shape=cylinder3;whiteSpace=wrap;html=1;boundedLbl=1;backgroundOutline=1;size=15;" vertex="1" parent="1">
          <mxGeometry x="500" y="370" width="70" height="80" as="geometry" />
        </mxCell>
        <mxCell id="_YYxoL6cynbAHGDHd7XT-15" style="edgeStyle=orthogonalEdgeStyle;rounded=0;orthogonalLoop=1;jettySize=auto;html=1;" edge="1" parent="1" source="_YYxoL6cynbAHGDHd7XT-16">
          <mxGeometry relative="1" as="geometry">
            <mxPoint x="480" y="640" as="targetPoint" />
          </mxGeometry>
        </mxCell>
        <mxCell id="_YYxoL6cynbAHGDHd7XT-16" value="Load the View MedicinesPage" style="rounded=1;whiteSpace=wrap;html=1;" vertex="1" parent="1">
          <mxGeometry x="420" y="490" width="120" height="60" as="geometry" />
        </mxCell>
        <mxCell id="_YYxoL6cynbAHGDHd7XT-18" value="" style="endArrow=none;html=1;rounded=0;" edge="1" parent="1">
          <mxGeometry width="50" height="50" relative="1" as="geometry">
            <mxPoint x="170" y="640" as="sourcePoint" />
            <mxPoint x="500" y="640" as="targetPoint" />
          </mxGeometry>
        </mxCell>
        <mxCell id="_YYxoL6cynbAHGDHd7XT-19" value="" style="endArrow=classic;html=1;rounded=0;" edge="1" parent="1">
          <mxGeometry width="50" height="50" relative="1" as="geometry">
            <mxPoint x="500" y="640" as="sourcePoint" />
            <mxPoint x="500" y="700" as="targetPoint" />
          </mxGeometry>
        </mxCell>
        <mxCell id="_YYxoL6cynbAHGDHd7XT-20" value="User clicks&lt;div&gt;on delete&lt;/div&gt;&lt;div&gt;medicines&lt;/div&gt;" style="edgeLabel;html=1;align=center;verticalAlign=middle;resizable=0;points=[];" vertex="1" connectable="0" parent="_YYxoL6cynbAHGDHd7XT-19">
          <mxGeometry x="0.0373" y="2" relative="1" as="geometry">
            <mxPoint y="1" as="offset" />
          </mxGeometry>
        </mxCell>
        <mxCell id="_YYxoL6cynbAHGDHd7XT-21" value="Delete all the medicines that are selected" style="shape=cylinder3;whiteSpace=wrap;html=1;boundedLbl=1;backgroundOutline=1;size=15;" vertex="1" parent="1">
          <mxGeometry x="450" y="700" width="100" height="80" as="geometry" />
        </mxCell>
        <mxCell id="_YYxoL6cynbAHGDHd7XT-22" value="" style="endArrow=classic;html=1;rounded=0;" edge="1" parent="1">
          <mxGeometry width="50" height="50" relative="1" as="geometry">
            <mxPoint x="340" y="640" as="sourcePoint" />
            <mxPoint x="340" y="700" as="targetPoint" />
          </mxGeometry>
        </mxCell>
        <mxCell id="_YYxoL6cynbAHGDHd7XT-23" value="User clicks&lt;div&gt;on Add New&lt;/div&gt;&lt;div&gt;Medicines Button&lt;/div&gt;" style="edgeLabel;html=1;align=center;verticalAlign=middle;resizable=0;points=[];" vertex="1" connectable="0" parent="_YYxoL6cynbAHGDHd7XT-22">
          <mxGeometry x="0.0373" y="2" relative="1" as="geometry">
            <mxPoint y="1" as="offset" />
          </mxGeometry>
        </mxCell>
        <mxCell id="_YYxoL6cynbAHGDHd7XT-24" value="" style="endArrow=classic;html=1;rounded=0;" edge="1" parent="1">
          <mxGeometry width="50" height="50" relative="1" as="geometry">
            <mxPoint x="170" y="640" as="sourcePoint" />
            <mxPoint x="170" y="700" as="targetPoint" />
          </mxGeometry>
        </mxCell>
        <mxCell id="_YYxoL6cynbAHGDHd7XT-25" value="User clicks&lt;div&gt;on Add Existing&lt;/div&gt;&lt;div&gt;Medicines Button&lt;/div&gt;" style="edgeLabel;html=1;align=center;verticalAlign=middle;resizable=0;points=[];" vertex="1" connectable="0" parent="_YYxoL6cynbAHGDHd7XT-24">
          <mxGeometry x="0.0373" y="2" relative="1" as="geometry">
            <mxPoint y="1" as="offset" />
          </mxGeometry>
        </mxCell>
        <mxCell id="_YYxoL6cynbAHGDHd7XT-26" style="edgeStyle=orthogonalEdgeStyle;rounded=0;orthogonalLoop=1;jettySize=auto;html=1;entryX=0.5;entryY=0;entryDx=0;entryDy=0;" edge="1" parent="1" source="_YYxoL6cynbAHGDHd7XT-28" target="_YYxoL6cynbAHGDHd7XT-34">
          <mxGeometry relative="1" as="geometry" />
        </mxCell>
        <mxCell id="_YYxoL6cynbAHGDHd7XT-27" value="User clicks&amp;nbsp;&lt;div&gt;on Submit&lt;/div&gt;&lt;div&gt;button&lt;/div&gt;" style="edgeLabel;html=1;align=center;verticalAlign=middle;resizable=0;points=[];" vertex="1" connectable="0" parent="_YYxoL6cynbAHGDHd7XT-26">
          <mxGeometry x="-0.025" y="3" relative="1" as="geometry">
            <mxPoint as="offset" />
          </mxGeometry>
        </mxCell>
        <mxCell id="_YYxoL6cynbAHGDHd7XT-28" value="Load the Add New Medicine Form" style="rounded=1;whiteSpace=wrap;html=1;" vertex="1" parent="1">
          <mxGeometry x="275.00000000000006" y="700" width="120" height="60" as="geometry" />
        </mxCell>
        <mxCell id="_YYxoL6cynbAHGDHd7XT-29" value="" style="edgeStyle=orthogonalEdgeStyle;rounded=0;orthogonalLoop=1;jettySize=auto;html=1;" edge="1" parent="1" source="_YYxoL6cynbAHGDHd7XT-31" target="_YYxoL6cynbAHGDHd7XT-37">
          <mxGeometry relative="1" as="geometry" />
        </mxCell>
        <mxCell id="_YYxoL6cynbAHGDHd7XT-30" value="User clicks&amp;nbsp;&lt;div&gt;on Submit&amp;nbsp;&lt;div&gt;button&lt;/div&gt;&lt;/div&gt;" style="edgeLabel;html=1;align=center;verticalAlign=middle;resizable=0;points=[];" vertex="1" connectable="0" parent="_YYxoL6cynbAHGDHd7XT-29">
          <mxGeometry x="-0.025" y="-1" relative="1" as="geometry">
            <mxPoint as="offset" />
          </mxGeometry>
        </mxCell>
        <mxCell id="_YYxoL6cynbAHGDHd7XT-31" value="Load the Add Existing Medicine Form" style="rounded=1;whiteSpace=wrap;html=1;" vertex="1" parent="1">
          <mxGeometry x="120.00000000000006" y="700" width="120" height="60" as="geometry" />
        </mxCell>
        <mxCell id="_YYxoL6cynbAHGDHd7XT-32" style="edgeStyle=orthogonalEdgeStyle;rounded=0;orthogonalLoop=1;jettySize=auto;html=1;" edge="1" parent="1" source="_YYxoL6cynbAHGDHd7XT-34">
          <mxGeometry relative="1" as="geometry">
            <mxPoint x="345" y="940" as="targetPoint" />
          </mxGeometry>
        </mxCell>
        <mxCell id="_YYxoL6cynbAHGDHd7XT-33" value="Yes" style="edgeLabel;html=1;align=center;verticalAlign=middle;resizable=0;points=[];" vertex="1" connectable="0" parent="_YYxoL6cynbAHGDHd7XT-32">
          <mxGeometry x="-0.253" y="-3" relative="1" as="geometry">
            <mxPoint as="offset" />
          </mxGeometry>
        </mxCell>
        <mxCell id="_YYxoL6cynbAHGDHd7XT-34" value="&lt;div&gt;Is&lt;div&gt;the data&lt;/div&gt;&lt;div&gt;valid?&lt;/div&gt;&lt;/div&gt;" style="rhombus;whiteSpace=wrap;html=1;" vertex="1" parent="1">
          <mxGeometry x="300.00000000000006" y="820" width="90" height="80" as="geometry" />
        </mxCell>
        <mxCell id="_YYxoL6cynbAHGDHd7XT-35" style="edgeStyle=orthogonalEdgeStyle;rounded=0;orthogonalLoop=1;jettySize=auto;html=1;" edge="1" parent="1" source="_YYxoL6cynbAHGDHd7XT-37">
          <mxGeometry relative="1" as="geometry">
            <mxPoint x="175" y="940" as="targetPoint" />
          </mxGeometry>
        </mxCell>
        <mxCell id="_YYxoL6cynbAHGDHd7XT-36" value="Yes" style="edgeLabel;html=1;align=center;verticalAlign=middle;resizable=0;points=[];" vertex="1" connectable="0" parent="_YYxoL6cynbAHGDHd7XT-35">
          <mxGeometry x="-0.3371" y="1" relative="1" as="geometry">
            <mxPoint as="offset" />
          </mxGeometry>
        </mxCell>
        <mxCell id="_YYxoL6cynbAHGDHd7XT-37" value="&lt;div&gt;Is&lt;div&gt;the data&lt;/div&gt;&lt;div&gt;valid?&lt;/div&gt;&lt;/div&gt;" style="rhombus;whiteSpace=wrap;html=1;" vertex="1" parent="1">
          <mxGeometry x="130.00000000000006" y="830" width="90" height="80" as="geometry" />
        </mxCell>
        <mxCell id="_YYxoL6cynbAHGDHd7XT-38" value="Show the&amp;nbsp;&amp;nbsp;&lt;div&gt;error&lt;div&gt;message&amp;nbsp;&lt;/div&gt;&lt;/div&gt;" style="shape=parallelogram;perimeter=parallelogramPerimeter;whiteSpace=wrap;html=1;fixedSize=1;" vertex="1" parent="1">
          <mxGeometry x="210" y="770" width="100" height="40" as="geometry" />
        </mxCell>
        <mxCell id="_YYxoL6cynbAHGDHd7XT-39" value="" style="endArrow=classic;html=1;rounded=0;entryX=0.563;entryY=1.029;entryDx=0;entryDy=0;entryPerimeter=0;exitX=0;exitY=0.5;exitDx=0;exitDy=0;" edge="1" parent="1" source="_YYxoL6cynbAHGDHd7XT-34" target="_YYxoL6cynbAHGDHd7XT-38">
          <mxGeometry width="50" height="50" relative="1" as="geometry">
            <mxPoint x="290" y="840" as="sourcePoint" />
            <mxPoint x="340" y="790" as="targetPoint" />
          </mxGeometry>
        </mxCell>
        <mxCell id="_YYxoL6cynbAHGDHd7XT-40" value="No" style="edgeLabel;html=1;align=center;verticalAlign=middle;resizable=0;points=[];" vertex="1" connectable="0" parent="_YYxoL6cynbAHGDHd7XT-39">
          <mxGeometry x="-0.0423" y="1" relative="1" as="geometry">
            <mxPoint as="offset" />
          </mxGeometry>
        </mxCell>
        <mxCell id="_YYxoL6cynbAHGDHd7XT-41" value="" style="endArrow=classic;html=1;rounded=0;exitX=1;exitY=0.5;exitDx=0;exitDy=0;" edge="1" parent="1" source="_YYxoL6cynbAHGDHd7XT-37">
          <mxGeometry width="50" height="50" relative="1" as="geometry">
            <mxPoint x="300" y="850" as="sourcePoint" />
            <mxPoint x="246" y="810" as="targetPoint" />
          </mxGeometry>
        </mxCell>
        <mxCell id="_YYxoL6cynbAHGDHd7XT-42" value="No" style="edgeLabel;html=1;align=center;verticalAlign=middle;resizable=0;points=[];" vertex="1" connectable="0" parent="_YYxoL6cynbAHGDHd7XT-41">
          <mxGeometry x="-0.0423" y="1" relative="1" as="geometry">
            <mxPoint as="offset" />
          </mxGeometry>
        </mxCell>
        <mxCell id="_YYxoL6cynbAHGDHd7XT-43" value="Create a Medicine and MedicineStock instances" style="shape=cylinder3;whiteSpace=wrap;html=1;boundedLbl=1;backgroundOutline=1;size=15;" vertex="1" parent="1">
          <mxGeometry x="300" y="940" width="120" height="80" as="geometry" />
        </mxCell>
        <mxCell id="_YYxoL6cynbAHGDHd7XT-44" value="Create a MedicineStock instances" style="shape=cylinder3;whiteSpace=wrap;html=1;boundedLbl=1;backgroundOutline=1;size=15;" vertex="1" parent="1">
          <mxGeometry x="120" y="940" width="120" height="80" as="geometry" />
        </mxCell>
        <mxCell id="_YYxoL6cynbAHGDHd7XT-45" value="" style="endArrow=none;html=1;rounded=0;" edge="1" parent="1">
          <mxGeometry width="50" height="50" relative="1" as="geometry">
            <mxPoint x="370" y="1040" as="sourcePoint" />
            <mxPoint x="370" y="1020" as="targetPoint" />
          </mxGeometry>
        </mxCell>
        <mxCell id="_YYxoL6cynbAHGDHd7XT-46" value="" style="endArrow=none;html=1;rounded=0;" edge="1" parent="1">
          <mxGeometry width="50" height="50" relative="1" as="geometry">
            <mxPoint x="180" y="1040" as="sourcePoint" />
            <mxPoint x="180" y="1020" as="targetPoint" />
          </mxGeometry>
        </mxCell>
        <mxCell id="_YYxoL6cynbAHGDHd7XT-47" value="" style="endArrow=none;html=1;rounded=0;" edge="1" parent="1">
          <mxGeometry width="50" height="50" relative="1" as="geometry">
            <mxPoint x="370" y="1040" as="sourcePoint" />
            <mxPoint x="430" y="1040" as="targetPoint" />
          </mxGeometry>
        </mxCell>
        <mxCell id="_YYxoL6cynbAHGDHd7XT-48" value="" style="endArrow=classic;html=1;rounded=0;" edge="1" parent="1">
          <mxGeometry width="50" height="50" relative="1" as="geometry">
            <mxPoint x="430" y="1040" as="sourcePoint" />
            <mxPoint x="430" y="770" as="targetPoint" />
          </mxGeometry>
        </mxCell>
        <mxCell id="_YYxoL6cynbAHGDHd7XT-49" value="" style="endArrow=classic;html=1;rounded=0;entryX=1;entryY=0.5;entryDx=0;entryDy=0;" edge="1" parent="1" target="_YYxoL6cynbAHGDHd7XT-28">
          <mxGeometry width="50" height="50" relative="1" as="geometry">
            <mxPoint x="430" y="770" as="sourcePoint" />
            <mxPoint x="480" y="720" as="targetPoint" />
          </mxGeometry>
        </mxCell>
        <mxCell id="_YYxoL6cynbAHGDHd7XT-50" value="" style="endArrow=none;html=1;rounded=0;" edge="1" parent="1">
          <mxGeometry width="50" height="50" relative="1" as="geometry">
            <mxPoint x="100" y="1040" as="sourcePoint" />
            <mxPoint x="180" y="1040" as="targetPoint" />
          </mxGeometry>
        </mxCell>
        <mxCell id="_YYxoL6cynbAHGDHd7XT-51" value="" style="endArrow=classic;html=1;rounded=0;" edge="1" parent="1">
          <mxGeometry width="50" height="50" relative="1" as="geometry">
            <mxPoint x="100" y="1040" as="sourcePoint" />
            <mxPoint x="100" y="780" as="targetPoint" />
          </mxGeometry>
        </mxCell>
        <mxCell id="_YYxoL6cynbAHGDHd7XT-52" value="" style="endArrow=classic;html=1;rounded=0;entryX=0.107;entryY=1.044;entryDx=0;entryDy=0;entryPerimeter=0;" edge="1" parent="1" target="_YYxoL6cynbAHGDHd7XT-31">
          <mxGeometry width="50" height="50" relative="1" as="geometry">
            <mxPoint x="100" y="780" as="sourcePoint" />
            <mxPoint x="110" y="690" as="targetPoint" />
          </mxGeometry>
        </mxCell>
        <mxCell id="_YYxoL6cynbAHGDHd7XT-53" value="Load the Lab Tests Page" style="rounded=1;whiteSpace=wrap;html=1;" vertex="1" parent="1">
          <mxGeometry x="624.57" y="615" width="120" height="60" as="geometry" />
        </mxCell>
        <mxCell id="_YYxoL6cynbAHGDHd7XT-54" style="edgeStyle=orthogonalEdgeStyle;rounded=0;orthogonalLoop=1;jettySize=auto;html=1;entryX=1;entryY=0.5;entryDx=0;entryDy=0;" edge="1" parent="1" source="_YYxoL6cynbAHGDHd7XT-55" target="_YYxoL6cynbAHGDHd7XT-53">
          <mxGeometry relative="1" as="geometry" />
        </mxCell>
        <mxCell id="_YYxoL6cynbAHGDHd7XT-55" value="Get Lab Tests" style="shape=cylinder3;whiteSpace=wrap;html=1;boundedLbl=1;backgroundOutline=1;size=15;" vertex="1" parent="1">
          <mxGeometry x="774.57" y="610" width="80" height="70" as="geometry" />
        </mxCell>
        <mxCell id="_YYxoL6cynbAHGDHd7XT-56" value="" style="endArrow=classic;html=1;rounded=0;" edge="1" parent="1">
          <mxGeometry width="50" height="50" relative="1" as="geometry">
            <mxPoint x="684.57" y="675" as="sourcePoint" />
            <mxPoint x="624.57" y="765" as="targetPoint" />
          </mxGeometry>
        </mxCell>
        <mxCell id="_YYxoL6cynbAHGDHd7XT-57" value="User clicks&lt;div&gt;Delete Lab&lt;/div&gt;&lt;div&gt;Test&amp;nbsp;&lt;/div&gt;&lt;div&gt;button&lt;/div&gt;" style="edgeLabel;html=1;align=center;verticalAlign=middle;resizable=0;points=[];" vertex="1" connectable="0" parent="_YYxoL6cynbAHGDHd7XT-56">
          <mxGeometry x="-0.0762" relative="1" as="geometry">
            <mxPoint as="offset" />
          </mxGeometry>
        </mxCell>
        <mxCell id="_YYxoL6cynbAHGDHd7XT-58" value="" style="endArrow=classic;html=1;rounded=0;" edge="1" parent="1">
          <mxGeometry width="50" height="50" relative="1" as="geometry">
            <mxPoint x="684.57" y="675" as="sourcePoint" />
            <mxPoint x="754.57" y="765" as="targetPoint" />
          </mxGeometry>
        </mxCell>
        <mxCell id="_YYxoL6cynbAHGDHd7XT-59" value="User clicks&lt;div&gt;Add&lt;/div&gt;&lt;div&gt;Lab test&lt;/div&gt;&lt;div&gt;button&lt;/div&gt;" style="edgeLabel;html=1;align=center;verticalAlign=middle;resizable=0;points=[];" vertex="1" connectable="0" parent="_YYxoL6cynbAHGDHd7XT-58">
          <mxGeometry x="0.0663" y="-2" relative="1" as="geometry">
            <mxPoint as="offset" />
          </mxGeometry>
        </mxCell>
        <mxCell id="_YYxoL6cynbAHGDHd7XT-60" value="Delete all the lab tests that are selected" style="shape=cylinder3;whiteSpace=wrap;html=1;boundedLbl=1;backgroundOutline=1;size=15;" vertex="1" parent="1">
          <mxGeometry x="584.57" y="765" width="100" height="80" as="geometry" />
        </mxCell>
        <mxCell id="_YYxoL6cynbAHGDHd7XT-61" style="edgeStyle=orthogonalEdgeStyle;rounded=0;orthogonalLoop=1;jettySize=auto;html=1;" edge="1" parent="1" source="_YYxoL6cynbAHGDHd7XT-62">
          <mxGeometry relative="1" as="geometry">
            <mxPoint x="764.57" y="855" as="targetPoint" />
          </mxGeometry>
        </mxCell>
        <mxCell id="_YYxoL6cynbAHGDHd7XT-62" value="Load the Add Lab Test Form" style="rounded=1;whiteSpace=wrap;html=1;" vertex="1" parent="1">
          <mxGeometry x="704.57" y="765" width="120" height="60" as="geometry" />
        </mxCell>
        <mxCell id="_YYxoL6cynbAHGDHd7XT-63" style="edgeStyle=orthogonalEdgeStyle;rounded=0;orthogonalLoop=1;jettySize=auto;html=1;" edge="1" parent="1" source="_YYxoL6cynbAHGDHd7XT-65">
          <mxGeometry relative="1" as="geometry">
            <mxPoint x="779.57" y="980" as="targetPoint" />
          </mxGeometry>
        </mxCell>
        <mxCell id="_YYxoL6cynbAHGDHd7XT-64" value="User clicks on&lt;div&gt;Submit button&lt;/div&gt;" style="edgeLabel;html=1;align=center;verticalAlign=middle;resizable=0;points=[];" vertex="1" connectable="0" parent="_YYxoL6cynbAHGDHd7XT-63">
          <mxGeometry x="0.0758" relative="1" as="geometry">
            <mxPoint as="offset" />
          </mxGeometry>
        </mxCell>
        <mxCell id="_YYxoL6cynbAHGDHd7XT-65" value="User inputs&lt;div&gt;the detail&lt;/div&gt;" style="shape=parallelogram;perimeter=parallelogramPerimeter;whiteSpace=wrap;html=1;fixedSize=1;" vertex="1" parent="1">
          <mxGeometry x="724.57" y="855" width="110" height="50" as="geometry" />
        </mxCell>
        <mxCell id="_YYxoL6cynbAHGDHd7XT-66" style="edgeStyle=orthogonalEdgeStyle;rounded=0;orthogonalLoop=1;jettySize=auto;html=1;" edge="1" parent="1">
          <mxGeometry relative="1" as="geometry">
            <mxPoint x="684.57" y="980" as="targetPoint" />
            <mxPoint x="784.57" y="980" as="sourcePoint" />
          </mxGeometry>
        </mxCell>
        <mxCell id="_YYxoL6cynbAHGDHd7XT-67" style="edgeStyle=orthogonalEdgeStyle;rounded=0;orthogonalLoop=1;jettySize=auto;html=1;entryX=0.5;entryY=0;entryDx=0;entryDy=0;entryPerimeter=0;" edge="1" parent="1" source="_YYxoL6cynbAHGDHd7XT-71" target="_YYxoL6cynbAHGDHd7XT-79">
          <mxGeometry relative="1" as="geometry">
            <mxPoint x="639.57" y="1045.0000000000002" as="targetPoint" />
          </mxGeometry>
        </mxCell>
        <mxCell id="_YYxoL6cynbAHGDHd7XT-68" value="Yes" style="edgeLabel;html=1;align=center;verticalAlign=middle;resizable=0;points=[];" vertex="1" connectable="0" parent="_YYxoL6cynbAHGDHd7XT-67">
          <mxGeometry x="-0.445" relative="1" as="geometry">
            <mxPoint as="offset" />
          </mxGeometry>
        </mxCell>
        <mxCell id="_YYxoL6cynbAHGDHd7XT-69" style="edgeStyle=orthogonalEdgeStyle;rounded=0;orthogonalLoop=1;jettySize=auto;html=1;" edge="1" parent="1" source="_YYxoL6cynbAHGDHd7XT-71" target="_YYxoL6cynbAHGDHd7XT-72">
          <mxGeometry relative="1" as="geometry">
            <mxPoint x="639.57" y="915" as="targetPoint" />
          </mxGeometry>
        </mxCell>
        <mxCell id="_YYxoL6cynbAHGDHd7XT-70" value="No" style="edgeLabel;html=1;align=center;verticalAlign=middle;resizable=0;points=[];" vertex="1" connectable="0" parent="_YYxoL6cynbAHGDHd7XT-69">
          <mxGeometry x="-0.2165" y="1" relative="1" as="geometry">
            <mxPoint as="offset" />
          </mxGeometry>
        </mxCell>
        <mxCell id="_YYxoL6cynbAHGDHd7XT-71" value="&lt;div&gt;Is&lt;div&gt;the data&lt;/div&gt;&lt;div&gt;valid?&lt;/div&gt;&lt;/div&gt;" style="rhombus;whiteSpace=wrap;html=1;" vertex="1" parent="1">
          <mxGeometry x="594.57" y="940" width="90" height="80" as="geometry" />
        </mxCell>
        <mxCell id="_YYxoL6cynbAHGDHd7XT-72" value="Show an error&lt;div&gt;message&amp;nbsp;&lt;/div&gt;&lt;div&gt;with the error&amp;nbsp;&amp;nbsp;&lt;/div&gt;" style="shape=parallelogram;perimeter=parallelogramPerimeter;whiteSpace=wrap;html=1;fixedSize=1;" vertex="1" parent="1">
          <mxGeometry x="594.57" y="855" width="110" height="50" as="geometry" />
        </mxCell>
        <mxCell id="_YYxoL6cynbAHGDHd7XT-73" style="edgeStyle=orthogonalEdgeStyle;rounded=0;orthogonalLoop=1;jettySize=auto;html=1;" edge="1" parent="1">
          <mxGeometry relative="1" as="geometry">
            <mxPoint x="874.5700000000003" y="1070.0000000000002" as="targetPoint" />
            <mxPoint x="690" y="1090" as="sourcePoint" />
          </mxGeometry>
        </mxCell>
        <mxCell id="_YYxoL6cynbAHGDHd7XT-74" value="" style="endArrow=none;html=1;rounded=0;" edge="1" parent="1">
          <mxGeometry width="50" height="50" relative="1" as="geometry">
            <mxPoint x="874.57" y="1075" as="sourcePoint" />
            <mxPoint x="874.57" y="785" as="targetPoint" />
          </mxGeometry>
        </mxCell>
        <mxCell id="_YYxoL6cynbAHGDHd7XT-75" value="" style="endArrow=classic;html=1;rounded=0;entryX=1.002;entryY=0.355;entryDx=0;entryDy=0;entryPerimeter=0;" edge="1" parent="1" target="_YYxoL6cynbAHGDHd7XT-62">
          <mxGeometry width="50" height="50" relative="1" as="geometry">
            <mxPoint x="874.57" y="785" as="sourcePoint" />
            <mxPoint x="924.57" y="735" as="targetPoint" />
          </mxGeometry>
        </mxCell>
        <mxCell id="_YYxoL6cynbAHGDHd7XT-76" value="" style="endArrow=classic;html=1;rounded=0;exitX=1;exitY=0;exitDx=0;exitDy=0;entryX=0.196;entryY=1.016;entryDx=0;entryDy=0;entryPerimeter=0;" edge="1" parent="1" source="_YYxoL6cynbAHGDHd7XT-72" target="_YYxoL6cynbAHGDHd7XT-62">
          <mxGeometry width="50" height="50" relative="1" as="geometry">
            <mxPoint x="714.57" y="850" as="sourcePoint" />
            <mxPoint x="764.57" y="800" as="targetPoint" />
          </mxGeometry>
        </mxCell>
        <mxCell id="_YYxoL6cynbAHGDHd7XT-77" value="" style="endArrow=none;html=1;rounded=0;exitX=0.145;exitY=0;exitDx=0;exitDy=4.35;exitPerimeter=0;" edge="1" parent="1" source="_YYxoL6cynbAHGDHd7XT-60">
          <mxGeometry width="50" height="50" relative="1" as="geometry">
            <mxPoint x="584.57" y="760" as="sourcePoint" />
            <mxPoint x="599.57" y="710" as="targetPoint" />
          </mxGeometry>
        </mxCell>
        <mxCell id="_YYxoL6cynbAHGDHd7XT-78" value="" style="endArrow=classic;html=1;rounded=0;" edge="1" parent="1" target="_YYxoL6cynbAHGDHd7XT-53">
          <mxGeometry width="50" height="50" relative="1" as="geometry">
            <mxPoint x="599.57" y="710" as="sourcePoint" />
            <mxPoint x="644.57" y="660" as="targetPoint" />
          </mxGeometry>
        </mxCell>
        <mxCell id="_YYxoL6cynbAHGDHd7XT-79" value="Add the&amp;nbsp;&lt;div&gt;Lab Test to&lt;/div&gt;&lt;div&gt;the database&lt;/div&gt;" style="shape=cylinder3;whiteSpace=wrap;html=1;boundedLbl=1;backgroundOutline=1;size=15;" vertex="1" parent="1">
          <mxGeometry x="589.57" y="1050" width="100" height="80" as="geometry" />
        </mxCell>
        <mxCell id="_YYxoL6cynbAHGDHd7XT-80" value="" style="endArrow=classic;html=1;rounded=0;exitX=0.5;exitY=1;exitDx=0;exitDy=0;exitPerimeter=0;" edge="1" parent="1" source="_YYxoL6cynbAHGDHd7XT-14" target="_YYxoL6cynbAHGDHd7XT-16">
          <mxGeometry width="50" height="50" relative="1" as="geometry">
            <mxPoint x="560" y="490" as="sourcePoint" />
            <mxPoint x="610" y="440" as="targetPoint" />
          </mxGeometry>
        </mxCell>
        <mxCell id="_YYxoL6cynbAHGDHd7XT-81" value="" style="endArrow=none;html=1;rounded=0;" edge="1" parent="1">
          <mxGeometry width="50" height="50" relative="1" as="geometry">
            <mxPoint x="250" y="210" as="sourcePoint" />
            <mxPoint x="420" y="210" as="targetPoint" />
          </mxGeometry>
        </mxCell>
        <mxCell id="_YYxoL6cynbAHGDHd7XT-82" value="User clicks on Prescription&lt;div&gt;Button on Dispense Medicines&lt;/div&gt;&lt;div&gt;Table&lt;/div&gt;" style="edgeLabel;html=1;align=center;verticalAlign=middle;resizable=0;points=[];" vertex="1" connectable="0" parent="_YYxoL6cynbAHGDHd7XT-81">
          <mxGeometry x="0.0848" y="-2" relative="1" as="geometry">
            <mxPoint x="-12" y="8" as="offset" />
          </mxGeometry>
        </mxCell>
        <mxCell id="_YYxoL6cynbAHGDHd7XT-83" value="" style="endArrow=classic;html=1;rounded=0;entryX=0.43;entryY=0.02;entryDx=0;entryDy=0;entryPerimeter=0;" edge="1" parent="1">
          <mxGeometry width="50" height="50" relative="1" as="geometry">
            <mxPoint x="250" y="210" as="sourcePoint" />
            <mxPoint x="252" y="261" as="targetPoint" />
          </mxGeometry>
        </mxCell>
        <mxCell id="_YYxoL6cynbAHGDHd7XT-87" value="" style="endArrow=none;html=1;rounded=0;" edge="1" parent="1">
          <mxGeometry width="50" height="50" relative="1" as="geometry">
            <mxPoint x="540" y="209.8" as="sourcePoint" />
            <mxPoint x="750" y="210" as="targetPoint" />
          </mxGeometry>
        </mxCell>
        <mxCell id="_YYxoL6cynbAHGDHd7XT-88" value="User clicks on Prescription&lt;div&gt;Button on Update Lab Tests&lt;/div&gt;&lt;div&gt;Table&lt;/div&gt;" style="edgeLabel;html=1;align=center;verticalAlign=middle;resizable=0;points=[];" vertex="1" connectable="0" parent="_YYxoL6cynbAHGDHd7XT-87">
          <mxGeometry x="0.0848" y="-2" relative="1" as="geometry">
            <mxPoint x="-12" y="8" as="offset" />
          </mxGeometry>
        </mxCell>
        <mxCell id="_YYxoL6cynbAHGDHd7XT-89" value="" style="endArrow=classic;html=1;rounded=0;" edge="1" parent="1">
          <mxGeometry width="50" height="50" relative="1" as="geometry">
            <mxPoint x="750" y="209" as="sourcePoint" />
            <mxPoint x="750" y="260" as="targetPoint" />
          </mxGeometry>
        </mxCell>
        <mxCell id="_YYxoL6cynbAHGDHd7XT-91" value="Load the Dispense Medicines Form" style="rounded=1;whiteSpace=wrap;html=1;" vertex="1" parent="1">
          <mxGeometry x="190.00000000000006" y="260" width="120" height="60" as="geometry" />
        </mxCell>
        <mxCell id="_YYxoL6cynbAHGDHd7XT-92" value="Get Prescription Data" style="shape=cylinder3;whiteSpace=wrap;html=1;boundedLbl=1;backgroundOutline=1;size=15;" vertex="1" parent="1">
          <mxGeometry x="350" y="250" width="80" height="80" as="geometry" />
        </mxCell>
        <mxCell id="_YYxoL6cynbAHGDHd7XT-93" value="" style="endArrow=classic;html=1;rounded=0;entryX=1;entryY=0.5;entryDx=0;entryDy=0;" edge="1" parent="1" target="_YYxoL6cynbAHGDHd7XT-91">
          <mxGeometry width="50" height="50" relative="1" as="geometry">
            <mxPoint x="350" y="290" as="sourcePoint" />
            <mxPoint x="420" y="240" as="targetPoint" />
          </mxGeometry>
        </mxCell>
        <mxCell id="_YYxoL6cynbAHGDHd7XT-94" value="Get Prescription Data" style="shape=cylinder3;whiteSpace=wrap;html=1;boundedLbl=1;backgroundOutline=1;size=15;" vertex="1" parent="1">
          <mxGeometry x="604.5699999999999" y="310" width="80" height="80" as="geometry" />
        </mxCell>
        <mxCell id="_YYxoL6cynbAHGDHd7XT-96" value="" style="endArrow=classic;html=1;rounded=0;entryX=0;entryY=0.5;entryDx=0;entryDy=0;exitX=1;exitY=0.5;exitDx=0;exitDy=0;exitPerimeter=0;" edge="1" parent="1" source="_YYxoL6cynbAHGDHd7XT-94" target="_YYxoL6cynbAHGDHd7XT-97">
          <mxGeometry width="50" height="50" relative="1" as="geometry">
            <mxPoint x="750" y="300" as="sourcePoint" />
            <mxPoint x="710" y="300" as="targetPoint" />
          </mxGeometry>
        </mxCell>
        <mxCell id="_YYxoL6cynbAHGDHd7XT-97" value="Load the Update Lab Test Form" style="rounded=1;whiteSpace=wrap;html=1;" vertex="1" parent="1">
          <mxGeometry x="704.57" y="260" width="120" height="60" as="geometry" />
        </mxCell>
        <mxCell id="_YYxoL6cynbAHGDHd7XT-99" value="" style="edgeStyle=orthogonalEdgeStyle;rounded=0;orthogonalLoop=1;jettySize=auto;html=1;" edge="1" parent="1" target="_YYxoL6cynbAHGDHd7XT-103">
          <mxGeometry relative="1" as="geometry">
            <mxPoint x="250" y="320" as="sourcePoint" />
          </mxGeometry>
        </mxCell>
        <mxCell id="_YYxoL6cynbAHGDHd7XT-100" value="User clicks&amp;nbsp;&lt;div&gt;on Submit&amp;nbsp;&lt;div&gt;button&lt;/div&gt;&lt;/div&gt;" style="edgeLabel;html=1;align=center;verticalAlign=middle;resizable=0;points=[];" vertex="1" connectable="0" parent="_YYxoL6cynbAHGDHd7XT-99">
          <mxGeometry x="-0.025" y="-1" relative="1" as="geometry">
            <mxPoint as="offset" />
          </mxGeometry>
        </mxCell>
        <mxCell id="_YYxoL6cynbAHGDHd7XT-101" style="edgeStyle=orthogonalEdgeStyle;rounded=0;orthogonalLoop=1;jettySize=auto;html=1;" edge="1" parent="1" source="_YYxoL6cynbAHGDHd7XT-103">
          <mxGeometry relative="1" as="geometry">
            <mxPoint x="245" y="500" as="targetPoint" />
          </mxGeometry>
        </mxCell>
        <mxCell id="_YYxoL6cynbAHGDHd7XT-102" value="Yes" style="edgeLabel;html=1;align=center;verticalAlign=middle;resizable=0;points=[];" vertex="1" connectable="0" parent="_YYxoL6cynbAHGDHd7XT-101">
          <mxGeometry x="-0.3371" y="1" relative="1" as="geometry">
            <mxPoint as="offset" />
          </mxGeometry>
        </mxCell>
        <mxCell id="_YYxoL6cynbAHGDHd7XT-103" value="&lt;div&gt;Is&lt;div&gt;the data&lt;/div&gt;&lt;div&gt;valid?&lt;/div&gt;&lt;/div&gt;" style="rhombus;whiteSpace=wrap;html=1;" vertex="1" parent="1">
          <mxGeometry x="200.00000000000006" y="390" width="90" height="80" as="geometry" />
        </mxCell>
        <mxCell id="_YYxoL6cynbAHGDHd7XT-104" value="Show the&amp;nbsp;&amp;nbsp;&lt;div&gt;error&lt;div&gt;message&amp;nbsp;&lt;/div&gt;&lt;/div&gt;" style="shape=parallelogram;perimeter=parallelogramPerimeter;whiteSpace=wrap;html=1;fixedSize=1;" vertex="1" parent="1">
          <mxGeometry x="325" y="410" width="100" height="40" as="geometry" />
        </mxCell>
        <mxCell id="_YYxoL6cynbAHGDHd7XT-105" value="" style="endArrow=classic;html=1;rounded=0;exitX=1;exitY=0.5;exitDx=0;exitDy=0;entryX=0;entryY=0.5;entryDx=0;entryDy=0;" edge="1" parent="1" source="_YYxoL6cynbAHGDHd7XT-103" target="_YYxoL6cynbAHGDHd7XT-104">
          <mxGeometry width="50" height="50" relative="1" as="geometry">
            <mxPoint x="370" y="410" as="sourcePoint" />
            <mxPoint x="316" y="370" as="targetPoint" />
          </mxGeometry>
        </mxCell>
        <mxCell id="_YYxoL6cynbAHGDHd7XT-106" value="No" style="edgeLabel;html=1;align=center;verticalAlign=middle;resizable=0;points=[];" vertex="1" connectable="0" parent="_YYxoL6cynbAHGDHd7XT-105">
          <mxGeometry x="-0.0423" y="1" relative="1" as="geometry">
            <mxPoint as="offset" />
          </mxGeometry>
        </mxCell>
        <mxCell id="_YYxoL6cynbAHGDHd7XT-107" value="Update the Prescription to reflect the total costs of the medicine" style="shape=cylinder3;whiteSpace=wrap;html=1;boundedLbl=1;backgroundOutline=1;size=15;" vertex="1" parent="1">
          <mxGeometry x="190" y="500" width="120" height="100" as="geometry" />
        </mxCell>
        <mxCell id="_YYxoL6cynbAHGDHd7XT-109" value="" style="edgeStyle=orthogonalEdgeStyle;rounded=0;orthogonalLoop=1;jettySize=auto;html=1;" edge="1" parent="1" target="_YYxoL6cynbAHGDHd7XT-113">
          <mxGeometry relative="1" as="geometry">
            <mxPoint x="764.5699999999999" y="320" as="sourcePoint" />
          </mxGeometry>
        </mxCell>
        <mxCell id="_YYxoL6cynbAHGDHd7XT-110" value="User clicks&amp;nbsp;&lt;div&gt;on Submit&amp;nbsp;&lt;div&gt;button&lt;/div&gt;&lt;/div&gt;" style="edgeLabel;html=1;align=center;verticalAlign=middle;resizable=0;points=[];" vertex="1" connectable="0" parent="_YYxoL6cynbAHGDHd7XT-109">
          <mxGeometry x="-0.025" y="-1" relative="1" as="geometry">
            <mxPoint as="offset" />
          </mxGeometry>
        </mxCell>
        <mxCell id="_YYxoL6cynbAHGDHd7XT-111" style="edgeStyle=orthogonalEdgeStyle;rounded=0;orthogonalLoop=1;jettySize=auto;html=1;" edge="1" parent="1" source="_YYxoL6cynbAHGDHd7XT-113">
          <mxGeometry relative="1" as="geometry">
            <mxPoint x="759.5699999999999" y="500" as="targetPoint" />
          </mxGeometry>
        </mxCell>
        <mxCell id="_YYxoL6cynbAHGDHd7XT-112" value="Yes" style="edgeLabel;html=1;align=center;verticalAlign=middle;resizable=0;points=[];" vertex="1" connectable="0" parent="_YYxoL6cynbAHGDHd7XT-111">
          <mxGeometry x="-0.3371" y="1" relative="1" as="geometry">
            <mxPoint as="offset" />
          </mxGeometry>
        </mxCell>
        <mxCell id="_YYxoL6cynbAHGDHd7XT-113" value="&lt;div&gt;Is&lt;div&gt;the data&lt;/div&gt;&lt;div&gt;valid?&lt;/div&gt;&lt;/div&gt;" style="rhombus;whiteSpace=wrap;html=1;" vertex="1" parent="1">
          <mxGeometry x="714.57" y="390" width="90" height="80" as="geometry" />
        </mxCell>
        <mxCell id="_YYxoL6cynbAHGDHd7XT-114" value="Show the&amp;nbsp;&amp;nbsp;&lt;div&gt;error&lt;div&gt;message&amp;nbsp;&lt;/div&gt;&lt;/div&gt;" style="shape=parallelogram;perimeter=parallelogramPerimeter;whiteSpace=wrap;html=1;fixedSize=1;" vertex="1" parent="1">
          <mxGeometry x="839.5699999999999" y="410" width="100" height="40" as="geometry" />
        </mxCell>
        <mxCell id="_YYxoL6cynbAHGDHd7XT-115" value="" style="endArrow=classic;html=1;rounded=0;exitX=1;exitY=0.5;exitDx=0;exitDy=0;entryX=0;entryY=0.5;entryDx=0;entryDy=0;" edge="1" parent="1" source="_YYxoL6cynbAHGDHd7XT-113" target="_YYxoL6cynbAHGDHd7XT-114">
          <mxGeometry width="50" height="50" relative="1" as="geometry">
            <mxPoint x="884.5699999999999" y="410" as="sourcePoint" />
            <mxPoint x="830.5699999999999" y="370" as="targetPoint" />
          </mxGeometry>
        </mxCell>
        <mxCell id="_YYxoL6cynbAHGDHd7XT-116" value="No" style="edgeLabel;html=1;align=center;verticalAlign=middle;resizable=0;points=[];" vertex="1" connectable="0" parent="_YYxoL6cynbAHGDHd7XT-115">
          <mxGeometry x="-0.0423" y="1" relative="1" as="geometry">
            <mxPoint as="offset" />
          </mxGeometry>
        </mxCell>
        <mxCell id="_YYxoL6cynbAHGDHd7XT-117" value="Update the Prescribed Lab Test table to reflect the change in the status" style="shape=cylinder3;whiteSpace=wrap;html=1;boundedLbl=1;backgroundOutline=1;size=15;" vertex="1" parent="1">
          <mxGeometry x="699.5699999999999" y="500" width="120" height="100" as="geometry" />
        </mxCell>
      </root>
    </mxGraphModel>
  </diagram>
</mxfile>
